<svg xmlns="http://www.w3.org/2000/svg" width="60" height="60" viewBox="0 0 60 60">
  <g id="ic_for_me" transform="translate(0.297 0.299)">
    <rect id="Rectangle_1757" data-name="Rectangle 1757" width="60" height="60" transform="translate(-0.297 -0.299)"  />
    <g id="Group_3395" data-name="Group 3395" transform="translate(1.367 6.3)">
      <ellipse id="Ellipse_17" data-name="Ellipse 17" cx="8" cy="7.5" rx="8" ry="7.5" transform="translate(1.336 11.401)"/>
      <ellipse id="Ellipse_18" data-name="Ellipse 18" cx="7" cy="7.5" rx="7" ry="7.5" transform="translate(42.336 11.401)"/>
      <path id="Subtraction_1" data-name="Subtraction 1" d="M7.943,14.5h0a16.493,16.493,0,0,1-5.744-.74A3.129,3.129,0,0,1,0,10.628c0-2.1,1.313-4.471,3.6-6.507A17.366,17.366,0,0,1,12.575,0C8.545,3.185,6.138,7.153,6.138,10.617A4.515,4.515,0,0,0,7.94,14.5Z" transform="translate(0 27.44)"/>
      <path id="Subtraction_2" data-name="Subtraction 2" d="M4.294,14.107l0,0a4.49,4.49,0,0,0,1.785-3.849C6.083,6.957,3.809,3.123,0,0A17.478,17.478,0,0,1,7.8,4.285c1.964,1.912,3.091,4.092,3.091,5.982a3.041,3.041,0,0,1-1.806,2.947,12.173,12.173,0,0,1-4.782.893Z" transform="translate(45.271 27.802)"/>
      <path id="Subtraction_4" data-name="Subtraction 4" d="M28.272,19.411c-1.229,0-2.512-.02-3.871-.04-1.463-.022-2.975-.045-4.532-.045s-3.068.023-4.527.045c-1.351.021-2.625.04-3.843.04-3.037,0-6.144-.105-8.3-.871C1.016,17.767,0,16.414,0,14.283c0-3.1,2.169-6.637,5.8-9.467A22.953,22.953,0,0,1,27.652,1.36a23.549,23.549,0,0,1,6.375,3.457,18.081,18.081,0,0,1,4.308,4.619,9.357,9.357,0,0,1,1.582,4.847c0,2.129-1.033,3.482-3.251,4.257C34.475,19.306,31.337,19.411,28.272,19.411ZM19.105,2.286A1.912,1.912,0,0,0,17.27,3.64l-.653,2.114a1.927,1.927,0,0,0,.67,2.093l1.61,1.23a1.921,1.921,0,0,0,2.332,0l1.611-1.23a1.927,1.927,0,0,0,.669-2.093L22.855,3.64A1.91,1.91,0,0,0,21.02,2.286Z" transform="translate(9.073 22.579)"/>
      <ellipse id="Ellipse_510" data-name="Ellipse 510" cx="9.5" cy="9" rx="9.5" ry="9" transform="translate(19.336 0.401)"/>
      <path id="Path_2274" data-name="Path 2274" d="M18.857,0C29.279,0,37.812,1.583,37.812,2.8s-8.533.988-18.956.988S.069,4.012.069,2.8,8.434,0,18.857,0Z" transform="translate(10.319 43.866)" />
    </g>
  </g>
</svg>
