<svg xmlns="http://www.w3.org/2000/svg" width="60" height="60" viewBox="0 0 60 60">
  <g id="ic_for_friends" transform="translate(0.3 0.299)">
    <rect id="Rectangle_1756" data-name="Rectangle 1756" width="60" height="60" transform="translate(-0.3 -0.299)" fill="#fff" opacity="0"/>
    <path id="Path_528" data-name="Path 528" d="M14.517,0C22.533,0,29.1,1.5,29.1,2.649s-6.562.935-14.578.935S.069,3.8.069,2.649,6.5,0,14.517,0Z" transform="translate(15.143 51.987)" opacity="0.2"/>
    <path id="Subtraction_3" data-name="Subtraction 3" d="M30.9,21.216c-1.344,0-2.747-.021-4.233-.044-1.6-.024-3.251-.049-4.953-.049s-3.356.025-4.951.05c-1.475.023-2.868.044-4.2.044-3.318,0-6.714-.115-9.073-.952C1.11,19.418,0,17.94,0,15.611a10.34,10.34,0,0,1,1.7-5.3A19.549,19.549,0,0,1,6.341,5.265,25.086,25.086,0,0,1,30.223,1.486a25.74,25.74,0,0,1,6.967,3.778A19.764,19.764,0,0,1,41.9,10.313a10.226,10.226,0,0,1,1.729,5.3c0,2.327-1.129,3.806-3.552,4.653C37.682,21.1,34.253,21.216,30.9,21.216ZM20.882,2.5a2.089,2.089,0,0,0-2.005,1.48l-.714,2.311a2.107,2.107,0,0,0,.731,2.288l1.761,1.345a2.1,2.1,0,0,0,2.548,0l1.761-1.345a2.108,2.108,0,0,0,.731-2.288L24.98,3.977A2.089,2.089,0,0,0,22.975,2.5Z" transform="translate(7.882 28.53)"/>
    <ellipse id="Ellipse_16" data-name="Ellipse 16" cx="10" cy="10.5" rx="10" ry="10.5" transform="translate(19.7 3.701)"/>
  </g>
</svg>
